<svg width="71" height="51" viewBox="0 0 71 51" fill="none" xmlns="http://www.w3.org/2000/svg">
<g filter="url(#filter0_d_1_916)">
<rect x="5.43726" y="5.66895" width="60" height="40" rx="5" fill="white"/>
<g clip-path="url(#clip0_1_916)">
<path d="M45.4092 20.8015C45.4091 20.8014 45.4091 20.8014 45.4091 20.8013L41.633 11.3198C41.5529 11.1184 41.3245 11.02 41.1231 11.1002C41.1229 11.1002 41.1228 11.1003 41.1226 11.1004L25.8036 17.2003C25.7411 17.2273 25.6869 17.2704 25.6465 17.3251C25.5191 17.3913 25.4386 17.5224 25.4373 17.6659V27.8736C25.4373 28.0905 25.613 28.2663 25.8299 28.2663H42.3193C42.5361 28.2663 42.7119 28.0905 42.7119 27.8736V22.2987L45.19 21.3116C45.3914 21.2313 45.4895 21.0029 45.4092 20.8015ZM41.9267 27.481H26.2225V18.0585H41.9267V27.481ZM31.9879 17.2753L38.5617 14.6558C39.1484 15.2725 39.9613 15.623 40.8125 15.6263L41.4681 17.2753H31.9879ZM42.7119 21.4553V17.6659C42.7119 17.4491 42.5361 17.2733 42.3193 17.2733H42.313L41.4811 15.1839C41.4718 15.1664 41.4611 15.1498 41.4489 15.1344C41.4068 14.9453 41.2317 14.8163 41.0386 14.8321C40.2466 14.9043 39.4719 14.5707 38.9802 13.9456C38.8578 13.7946 38.6428 13.757 38.4765 13.8576C38.4578 13.8598 38.4393 13.8633 38.4211 13.8678L30.3955 17.0637C30.2983 17.1017 30.2207 17.1773 30.1799 17.2733H27.7426L41.0488 11.9751L44.5348 20.7282L42.7119 21.4553Z" fill="#662D91"/>
<path d="M27.288 24.8306C28.0503 25.0559 28.6467 25.6516 28.873 26.4136C28.9226 26.5799 29.0755 26.6939 29.2491 26.6939C29.2694 26.6926 29.2897 26.6896 29.3095 26.6849C29.3272 26.6899 29.3452 26.6936 29.3633 26.6959H38.7858C38.802 26.6938 38.818 26.6905 38.8337 26.6861C39.0299 26.7338 39.2276 26.6135 39.2753 26.4173C39.2755 26.4166 39.2757 26.4159 39.2758 26.4152C39.5015 25.6524 40.098 25.0559 40.8608 24.8302C41.0457 24.7737 41.1607 24.5893 41.1301 24.3983C41.1353 24.3793 41.1391 24.3599 41.1415 24.3402V21.1994C41.1392 21.1797 41.1352 21.1603 41.1297 21.1413C41.1605 20.9502 41.0455 20.7658 40.8604 20.7094C40.0976 20.4838 39.5012 19.887 39.2762 19.1241C39.2194 18.9378 39.0332 18.8226 38.8412 18.8547C38.823 18.8497 38.8045 18.846 38.7858 18.8438H29.3633C29.3435 18.8461 29.324 18.85 29.3048 18.8555C29.1139 18.8251 28.9296 18.94 28.873 19.1249C28.6472 19.8874 28.0506 20.4838 27.288 20.7094C27.103 20.7659 26.9881 20.9503 27.0187 21.1413C27.0136 21.1604 27.0099 21.1798 27.0077 21.1994V24.3402C27.0099 24.3587 27.0136 24.3769 27.0187 24.3948C26.9865 24.587 27.1017 24.7734 27.288 24.8306ZM27.7929 21.3588C28.5813 21.0421 29.2061 20.4173 29.5227 19.629H38.6261C38.9428 20.4173 39.5678 21.0421 40.3563 21.3588V24.1808C39.5682 24.4978 38.9434 25.1226 38.6265 25.9107H29.5227C29.2057 25.1226 28.581 24.4978 27.7929 24.1808V21.3588Z" fill="#662D91"/>
<path d="M34.0746 25.1258C35.3756 25.1258 36.4302 24.0712 36.4302 22.7702C36.4302 21.4692 35.3756 20.4146 34.0746 20.4146C32.7736 20.4146 31.7189 21.4692 31.7189 22.7702C31.7202 24.0706 32.7741 25.1245 34.0746 25.1258ZM34.0746 21.1998C34.9419 21.1998 35.645 21.9029 35.645 22.7702C35.645 23.6375 34.9419 24.3406 34.0746 24.3406C33.2073 24.3406 32.5041 23.6375 32.5041 22.7702C32.5041 21.9029 33.2073 21.1998 34.0746 21.1998Z" fill="#662D91"/>
<path d="M29.7559 23.359C30.0811 23.359 30.3448 23.0953 30.3448 22.7701C30.3448 22.4448 30.0811 22.1812 29.7559 22.1812C29.4307 22.1812 29.167 22.4448 29.167 22.7701C29.167 23.0953 29.4307 23.359 29.7559 23.359ZM29.7559 22.5738C29.8643 22.5738 29.9522 22.6617 29.9522 22.7701C29.9522 22.8785 29.8643 22.9664 29.7559 22.9664C29.6475 22.9664 29.5596 22.8785 29.5596 22.7701C29.5596 22.6617 29.6475 22.5738 29.7559 22.5738Z" fill="#662D91"/>
<path d="M38.3932 23.359C38.7185 23.359 38.9821 23.0953 38.9821 22.7701C38.9821 22.4448 38.7185 22.1812 38.3932 22.1812C38.068 22.1812 37.8043 22.4448 37.8043 22.7701C37.8043 23.0953 38.068 23.359 38.3932 23.359ZM38.3932 22.5738C38.5016 22.5738 38.5895 22.6617 38.5895 22.7701C38.5895 22.8785 38.5016 22.9664 38.3932 22.9664C38.2848 22.9664 38.1969 22.8785 38.1969 22.7701C38.1969 22.6617 38.2848 22.5738 38.3932 22.5738Z" fill="#662D91"/>
</g>
<path d="M21.3053 33.2609H19.9613V32.4689H23.6213V33.2609H22.2773V36.6689H21.3053V33.2609ZM24.1442 32.4689H25.1162V36.6689H24.1442V32.4689ZM29.365 35.8889V36.6689H26.113V32.4689H29.287V33.2489H27.079V34.1609H29.029V34.9169H27.079V35.8889H29.365ZM28.219 32.1269L27.703 31.7849L27.187 32.1269H26.497L27.295 31.4429H28.111L28.909 32.1269H28.219ZM27.841 30.8249H28.795L29.455 31.5509H28.783L27.841 30.8249ZM33.9904 32.4689V36.6689H33.1924L31.0984 34.1189V36.6689H30.1384V32.4689H30.9424L33.0304 35.0189V32.4689H33.9904ZM40.5053 36.6689L40.4993 34.1489L39.2633 36.2249H38.8253L37.5953 34.2029V36.6689H36.6833V32.4689H37.4873L39.0593 35.0789L40.6073 32.4689H41.4053L41.4173 36.6689H40.5053ZM45.1798 35.7689H43.2298L42.8578 36.6689H41.8618L43.7338 32.4689H44.6938L46.5718 36.6689H45.5518L45.1798 35.7689ZM44.8738 35.0309L44.2078 33.4229L43.5418 35.0309H44.8738ZM44.2138 37.9289C44.0938 37.9289 43.9938 37.8909 43.9138 37.8149C43.8378 37.7429 43.7998 37.6469 43.7998 37.5269C43.7998 37.4069 43.8378 37.3069 43.9138 37.2269C43.9938 37.1469 44.0938 37.1069 44.2138 37.1069C44.3298 37.1069 44.4278 37.1469 44.5078 37.2269C44.5878 37.3069 44.6278 37.4069 44.6278 37.5269C44.6278 37.6469 44.5878 37.7429 44.5078 37.8149C44.4318 37.8909 44.3338 37.9289 44.2138 37.9289ZM44.2138 32.1749C43.8978 32.1749 43.6378 32.0929 43.4338 31.9289C43.2298 31.7649 43.1218 31.5429 43.1098 31.2629H43.6978C43.7018 31.3909 43.7518 31.4949 43.8478 31.5749C43.9478 31.6509 44.0698 31.6889 44.2138 31.6889C44.3578 31.6889 44.4778 31.6509 44.5738 31.5749C44.6738 31.4949 44.7258 31.3909 44.7298 31.2629H45.3178C45.3058 31.5429 45.1978 31.7649 44.9938 31.9289C44.7898 32.0929 44.5298 32.1749 44.2138 32.1749ZM47.6666 33.2609H46.3226V32.4689H49.9826V33.2609H48.6386V36.6689H47.6666V33.2609Z" fill="black"/>
</g>
<defs>
<filter id="filter0_d_1_916" x="0.437256" y="0.668945" width="70" height="50" filterUnits="userSpaceOnUse" color-interpolation-filters="sRGB">
<feFlood flood-opacity="0" result="BackgroundImageFix"/>
<feColorMatrix in="SourceAlpha" type="matrix" values="0 0 0 0 0 0 0 0 0 0 0 0 0 0 0 0 0 0 127 0" result="hardAlpha"/>
<feOffset/>
<feGaussianBlur stdDeviation="2.5"/>
<feColorMatrix type="matrix" values="0 0 0 0 0 0 0 0 0 0 0 0 0 0 0 0 0 0 0.1 0"/>
<feBlend mode="normal" in2="BackgroundImageFix" result="effect1_dropShadow_1_916"/>
<feBlend mode="normal" in="SourceGraphic" in2="effect1_dropShadow_1_916" result="shape"/>
</filter>
<clipPath id="clip0_1_916">
<rect width="20" height="20" fill="white" transform="translate(25.4373 9.66895)"/>
</clipPath>
</defs>
</svg>
