<svg width="71" height="51" viewBox="0 0 71 51" fill="none" xmlns="http://www.w3.org/2000/svg">
<g filter="url(#filter0_d_1_927)">
<rect x="5.43726" y="5.66895" width="60" height="40" rx="5" fill="white"/>
<path d="M23.9855 17.9556C24.6177 17.4086 25.2454 16.8616 25.8776 16.3235C27.2362 15.1667 28.5948 14.0144 29.9534 12.8576C30.0027 12.8128 30.052 12.75 30.1103 12.732C30.2403 12.7007 30.3972 12.6379 30.4959 12.6872C30.5945 12.7365 30.6887 12.9024 30.6932 13.019C30.7111 13.6333 30.7021 14.2431 30.7021 14.8573C30.7021 14.9515 30.7021 15.0501 30.7021 15.1802C30.8098 15.1802 30.9039 15.1802 30.9936 15.1802C34.1098 15.1802 37.226 15.1802 40.3467 15.1802C40.405 15.1802 40.4677 15.1757 40.526 15.1802C40.7368 15.1936 40.8892 15.3416 40.8937 15.5299C40.8982 15.7272 40.7457 15.8886 40.5215 15.8931C40.2032 15.9021 39.8804 15.8931 39.5575 15.8931C36.5445 15.8931 33.5314 15.8931 30.5183 15.8931C30.0789 15.8931 29.9847 15.7944 29.9847 15.3506C29.9847 14.8439 29.9847 14.3372 29.9847 13.7633C28.272 15.2295 26.595 16.6553 24.8957 18.0946C26.5906 19.5339 28.263 20.9552 29.9847 22.4169C29.9847 22.2017 29.9847 22.0358 29.9847 21.8699C29.9847 21.5022 29.9847 21.1391 29.9847 20.7714C29.9847 20.4037 30.1013 20.2872 30.4645 20.2872C33.6031 20.2872 36.7417 20.2872 39.8848 20.2872C39.9745 20.2872 40.0597 20.2872 40.1763 20.2872C40.1763 20.1347 40.1763 20.0047 40.1763 19.8746C40.1763 19.3142 40.1808 18.7537 40.1763 18.1932C40.1763 18.0184 40.2032 17.8659 40.3736 17.7763C40.5619 17.6821 40.7009 17.7673 40.8399 17.8839C42.4182 19.229 44.0009 20.5696 45.5837 21.9147C45.9469 22.2241 46.31 22.5335 46.6732 22.8429C46.9692 23.094 46.9736 23.2957 46.6822 23.5423C44.7452 25.1924 42.8038 26.8379 40.8668 28.4879C40.8399 28.5103 40.8085 28.5372 40.7816 28.5597C40.656 28.6628 40.4991 28.7166 40.3736 28.6135C40.2794 28.5327 40.1897 28.3893 40.1853 28.2682C40.1673 27.6405 40.1763 27.0128 40.1763 26.385C40.1763 26.3043 40.1763 26.2236 40.1763 26.116C40.0776 26.116 39.9969 26.116 39.9162 26.116C36.7776 26.116 33.639 26.116 30.4959 26.116C30.4286 26.116 30.3614 26.125 30.2941 26.1115C30.1013 26.0712 29.9892 25.9546 29.9847 25.7573C29.9758 25.5735 30.1237 25.4255 30.321 25.4031C30.3883 25.3941 30.4555 25.3986 30.5228 25.3986C33.8049 25.3986 37.087 25.3986 40.3646 25.3986C40.7906 25.3986 40.8892 25.5017 40.8892 25.9277C40.8892 26.4433 40.8892 26.9545 40.8892 27.5284C42.602 26.0712 44.2789 24.6498 45.9782 23.2061C44.2879 21.7713 42.611 20.3454 40.8892 18.8793C40.8892 19.2559 40.8892 19.5832 40.8892 19.906C40.8892 20.1213 40.8892 20.341 40.8892 20.5562C40.8847 20.888 40.7592 21.0135 40.4229 21.0135C38.4994 21.0135 36.5758 21.0135 34.6523 21.0135C33.4058 21.0135 32.1594 21.0135 30.9174 21.0135C30.8501 21.0135 30.7873 21.018 30.6977 21.027C30.6977 21.4843 30.6977 21.9327 30.6977 22.3766C30.6977 22.6142 30.6932 22.8563 30.6977 23.094C30.7021 23.2733 30.6797 23.4392 30.4914 23.5289C30.3031 23.6186 30.1641 23.5289 30.0251 23.4123C29.218 22.7263 28.411 22.0403 27.6039 21.3543C26.4829 20.4037 25.362 19.4487 24.2456 18.4981C24.1514 18.4174 24.0662 18.3233 23.9765 18.2381C23.9855 18.135 23.9855 18.0453 23.9855 17.9556Z" fill="#662D91"/>
<path d="M11.83 37.7409C11.402 37.7409 11.014 37.6489 10.666 37.4649C10.322 37.2769 10.05 37.0189 9.85002 36.6909C9.65402 36.3589 9.55602 35.9849 9.55602 35.5689C9.55602 35.1529 9.65402 34.7809 9.85002 34.4529C10.05 34.1209 10.322 33.8629 10.666 33.6789C11.014 33.4909 11.404 33.3969 11.836 33.3969C12.2 33.3969 12.528 33.4609 12.82 33.5889C13.116 33.7169 13.364 33.9009 13.564 34.1409L12.94 34.7169C12.656 34.3889 12.304 34.2249 11.884 34.2249C11.624 34.2249 11.392 34.2829 11.188 34.3989C10.984 34.5109 10.824 34.6689 10.708 34.8729C10.596 35.0769 10.54 35.3089 10.54 35.5689C10.54 35.8289 10.596 36.0609 10.708 36.2649C10.824 36.4689 10.984 36.6289 11.188 36.7449C11.392 36.8569 11.624 36.9129 11.884 36.9129C12.304 36.9129 12.656 36.7469 12.94 36.4149L13.564 36.9909C13.364 37.2349 13.116 37.4209 12.82 37.5489C12.524 37.6769 12.194 37.7409 11.83 37.7409ZM18.0724 33.4689V37.6689H17.1004V35.9469H15.1924V37.6689H14.2204V33.4689H15.1924V35.1249H17.1004V33.4689H18.0724ZM20.9321 37.7409C20.3321 37.7409 19.8641 37.5749 19.5281 37.2429C19.1961 36.9109 19.0301 36.4369 19.0301 35.8209V33.4689H20.0021V35.7849C20.0021 36.5369 20.3141 36.9129 20.9381 36.9129C21.2421 36.9129 21.4741 36.8229 21.6341 36.6429C21.7941 36.4589 21.8741 36.1729 21.8741 35.7849V33.4689H22.8341V35.8209C22.8341 36.4369 22.6661 36.9109 22.3301 37.2429C21.9981 37.5749 21.5321 37.7409 20.9321 37.7409ZM25.752 36.1809V37.6689H24.78V36.1689L23.154 33.4689H24.186L25.308 35.3349L26.43 33.4689H27.384L25.752 36.1809ZM31.0017 36.8889V37.6689H27.7497V33.4689H30.9237V34.2489H28.7157V35.1609H30.6657V35.9169H28.7157V36.8889H31.0017ZM29.8557 33.1269L29.3397 32.7849L28.8237 33.1269H28.1337L28.9317 32.4429H29.7477L30.5457 33.1269H29.8557ZM30.1797 32.4429C30.3277 32.3709 30.4017 32.2869 30.4017 32.1909C30.4017 32.1389 30.3817 32.0969 30.3417 32.0649C30.3057 32.0329 30.2577 32.0169 30.1977 32.0169C30.1137 32.0169 30.0257 32.0409 29.9337 32.0889L29.7777 31.8009C29.9137 31.7129 30.0797 31.6689 30.2757 31.6689C30.4437 31.6689 30.5777 31.7129 30.6777 31.8009C30.7777 31.8849 30.8277 31.9989 30.8277 32.1429C30.8277 32.2589 30.7877 32.3629 30.7077 32.4549C30.6317 32.5469 30.5317 32.6169 30.4077 32.6649L30.1797 32.4429ZM35.6271 33.4689V37.6689H34.8291L32.7351 35.1189V37.6689H31.7751V33.4689H32.5791L34.6671 36.0189V33.4689H35.6271ZM39.85 36.0189L39.286 36.6069V37.6689H38.32V33.4689H39.286V35.4309L41.146 33.4689H42.226L40.486 35.3409L42.328 37.6689H41.194L39.85 36.0189ZM46.6134 33.4689V37.6689H45.6414V35.9469H43.7334V37.6689H42.7614V33.4689H43.7334V35.1249H45.6414V33.4689H46.6134ZM49.6411 37.7409C49.2051 37.7409 48.8111 37.6469 48.4591 37.4589C48.1111 37.2709 47.8371 37.0129 47.6371 36.6849C47.4411 36.3529 47.3431 35.9809 47.3431 35.5689C47.3431 35.1569 47.4411 34.7869 47.6371 34.4589C47.8371 34.1269 48.1111 33.8669 48.4591 33.6789C48.8111 33.4909 49.2051 33.3969 49.6411 33.3969C50.0771 33.3969 50.4691 33.4909 50.8171 33.6789C51.1651 33.8669 51.4391 34.1269 51.6391 34.4589C51.8391 34.7869 51.9391 35.1569 51.9391 35.5689C51.9391 35.9809 51.8391 36.3529 51.6391 36.6849C51.4391 37.0129 51.1651 37.2709 50.8171 37.4589C50.4691 37.6469 50.0771 37.7409 49.6411 37.7409ZM49.6411 36.9129C49.8891 36.9129 50.1131 36.8569 50.3131 36.7449C50.5131 36.6289 50.6691 36.4689 50.7811 36.2649C50.8971 36.0609 50.9551 35.8289 50.9551 35.5689C50.9551 35.3089 50.8971 35.0769 50.7811 34.8729C50.6691 34.6689 50.5131 34.5109 50.3131 34.3989C50.1131 34.2829 49.8891 34.2249 49.6411 34.2249C49.3931 34.2249 49.1691 34.2829 48.9691 34.3989C48.7691 34.5109 48.6111 34.6689 48.4951 34.8729C48.3831 35.0769 48.3271 35.3089 48.3271 35.5689C48.3271 35.8289 48.3831 36.0609 48.4951 36.2649C48.6111 36.4689 48.7691 36.6289 48.9691 36.7449C49.1691 36.8569 49.3931 36.9129 49.6411 36.9129ZM55.377 36.7689H53.427L53.055 37.6689H52.059L53.931 33.4689H54.891L56.769 37.6689H55.749L55.377 36.7689ZM55.071 36.0309L54.405 34.4229L53.739 36.0309H55.071ZM54.297 32.8749C54.409 32.8229 54.487 32.7669 54.531 32.7069C54.579 32.6469 54.603 32.5809 54.603 32.5089C54.603 32.4329 54.577 32.3729 54.525 32.3289C54.473 32.2809 54.405 32.2569 54.321 32.2569C54.201 32.2569 54.083 32.2949 53.967 32.3709L53.775 31.9929C53.947 31.8569 54.163 31.7889 54.423 31.7889C54.635 31.7889 54.807 31.8489 54.939 31.9689C55.075 32.0849 55.143 32.2389 55.143 32.4309C55.143 32.7669 54.959 33.0189 54.591 33.1869L54.297 32.8749ZM61.0568 33.4689V37.6689H60.2588L58.1648 35.1189V37.6689H57.2048V33.4689H58.0088L60.0968 36.0189V33.4689H61.0568Z" fill="black"/>
</g>
<defs>
<filter id="filter0_d_1_927" x="0.437256" y="0.668945" width="70" height="50" filterUnits="userSpaceOnUse" color-interpolation-filters="sRGB">
<feFlood flood-opacity="0" result="BackgroundImageFix"/>
<feColorMatrix in="SourceAlpha" type="matrix" values="0 0 0 0 0 0 0 0 0 0 0 0 0 0 0 0 0 0 127 0" result="hardAlpha"/>
<feOffset/>
<feGaussianBlur stdDeviation="2.5"/>
<feColorMatrix type="matrix" values="0 0 0 0 0 0 0 0 0 0 0 0 0 0 0 0 0 0 0.1 0"/>
<feBlend mode="normal" in2="BackgroundImageFix" result="effect1_dropShadow_1_927"/>
<feBlend mode="normal" in="SourceGraphic" in2="effect1_dropShadow_1_927" result="shape"/>
</filter>
</defs>
</svg>
