<svg width="71" height="51" viewBox="0 0 71 51" fill="none" xmlns="http://www.w3.org/2000/svg">
<g filter="url(#filter0_d_1_930)">
<rect x="5.43726" y="5.66895" width="60" height="40" rx="5" fill="white"/>
<g clip-path="url(#clip0_1_930)">
<path d="M43.3539 13.0024H27.5206C26.3723 13.0024 25.4373 13.9374 25.4373 15.0858V24.2525C25.4373 25.4008 26.3723 26.3358 27.5206 26.3358H43.3539C44.5022 26.3358 45.4372 25.4008 45.4372 24.2525V15.0858C45.4373 13.9374 44.5023 13.0024 43.3539 13.0024ZM44.6039 24.2524C44.6039 24.9416 44.0431 25.5024 43.3539 25.5024H27.5206C26.8314 25.5024 26.2706 24.9416 26.2706 24.2524V15.0858C26.2706 14.3966 26.8314 13.8358 27.5206 13.8358H43.3539C44.0431 13.8358 44.6039 14.3966 44.6039 15.0858V24.2524H44.6039Z" fill="#662D91"/>
<path d="M45.0206 15.5024H25.8539C25.6239 15.5024 25.4373 15.6891 25.4373 15.9191V18.4191C25.4373 18.6491 25.6239 18.8358 25.8539 18.8358H45.0206C45.2506 18.8358 45.4373 18.6491 45.4373 18.4191V15.9191C45.4373 15.6891 45.2506 15.5024 45.0206 15.5024ZM44.6039 18.0024H26.2706V16.3358H44.6039V18.0024H44.6039Z" fill="#662D91"/>
<path d="M33.3539 21.3354H28.3539C28.1239 21.3354 27.9373 21.5221 27.9373 21.7521C27.9373 21.9821 28.1239 22.1688 28.3539 22.1688H33.3539C33.5839 22.1688 33.7706 21.9821 33.7706 21.7521C33.7706 21.5221 33.5839 21.3354 33.3539 21.3354Z" fill="#662D91"/>
<path d="M33.3539 23.0024H28.3539C28.1239 23.0024 27.9373 23.1891 27.9373 23.4191C27.9373 23.6491 28.1239 23.8358 28.3539 23.8358H33.3539C33.5839 23.8358 33.7706 23.6491 33.7706 23.4191C33.7706 23.1891 33.5839 23.0024 33.3539 23.0024Z" fill="#662D91"/>
<path d="M41.6873 20.5024H40.8539C40.1648 20.5024 39.6039 21.0633 39.6039 21.7524V22.5858C39.6039 23.2749 40.1648 23.8358 40.8539 23.8358H41.6873C42.3764 23.8358 42.9373 23.2749 42.9373 22.5858V21.7524C42.9373 21.0633 42.3764 20.5024 41.6873 20.5024ZM42.1039 22.5858C42.1039 22.8158 41.9173 23.0025 41.6873 23.0025H40.8539C40.6239 23.0025 40.4373 22.8158 40.4373 22.5858V21.7525C40.4373 21.5225 40.6239 21.3358 40.8539 21.3358H41.6873C41.9173 21.3358 42.1039 21.5225 42.1039 21.7525V22.5858Z" fill="#662D91"/>
</g>
<path d="M22.7545 33.2609H21.4105V32.4689H25.0705V33.2609H23.7265V36.6689H22.7545V33.2609ZM29.4455 32.4689V36.6689H28.4735V34.9469H26.5655V36.6689H25.5935V32.4689H26.5655V34.1249H28.4735V32.4689H29.4455ZM33.6912 35.8889V36.6689H30.4392V32.4689H33.6132V33.2489H31.4052V34.1609H33.3552V34.9169H31.4052V35.8889H33.6912ZM31.9152 31.8749C32.0272 31.8229 32.1052 31.7669 32.1492 31.7069C32.1972 31.6469 32.2212 31.5809 32.2212 31.5089C32.2212 31.4329 32.1952 31.3729 32.1432 31.3289C32.0912 31.2809 32.0232 31.2569 31.9392 31.2569C31.8192 31.2569 31.7012 31.2949 31.5852 31.3709L31.3932 30.9929C31.5652 30.8569 31.7812 30.7889 32.0412 30.7889C32.2532 30.7889 32.4252 30.8489 32.5572 30.9689C32.6932 31.0849 32.7612 31.2389 32.7612 31.4309C32.7612 31.7669 32.5772 32.0189 32.2092 32.1869L31.9152 31.8749ZM38.9298 35.7689H36.9798L36.6078 36.6689H35.6118L37.4838 32.4689H38.4438L40.3218 36.6689H39.3018L38.9298 35.7689ZM38.6238 35.0309L37.9578 33.4229L37.2918 35.0309H38.6238ZM41.4166 33.2609H40.0726V32.4689H43.7326V33.2609H42.3886V36.6689H41.4166V33.2609ZM48.0776 36.6689L48.0716 34.1489L46.8356 36.2249H46.3976L45.1676 34.2029V36.6689H44.2556V32.4689H45.0596L46.6316 35.0789L48.1796 32.4689H48.9776L48.9896 36.6689H48.0776Z" fill="black"/>
</g>
<defs>
<filter id="filter0_d_1_930" x="0.437256" y="0.668945" width="70" height="50" filterUnits="userSpaceOnUse" color-interpolation-filters="sRGB">
<feFlood flood-opacity="0" result="BackgroundImageFix"/>
<feColorMatrix in="SourceAlpha" type="matrix" values="0 0 0 0 0 0 0 0 0 0 0 0 0 0 0 0 0 0 127 0" result="hardAlpha"/>
<feOffset/>
<feGaussianBlur stdDeviation="2.5"/>
<feColorMatrix type="matrix" values="0 0 0 0 0 0 0 0 0 0 0 0 0 0 0 0 0 0 0.1 0"/>
<feBlend mode="normal" in2="BackgroundImageFix" result="effect1_dropShadow_1_930"/>
<feBlend mode="normal" in="SourceGraphic" in2="effect1_dropShadow_1_930" result="shape"/>
</filter>
<clipPath id="clip0_1_930">
<rect width="20" height="20" fill="white" transform="translate(25.4373 9.66895)"/>
</clipPath>
</defs>
</svg>
