<svg width="71" height="51" viewBox="0 0 71 51" fill="none" xmlns="http://www.w3.org/2000/svg">
<g filter="url(#filter0_d_1_948)">
<rect x="5.43726" y="5.66895" width="60" height="40" rx="5" fill="white"/>
<path d="M15.4029 18.3369H9.49767L9.43726 18.6237C14.0437 19.8017 17.0945 22.6411 18.348 26.054L17.0642 19.5301C16.8529 18.6235 16.2034 18.3668 15.4029 18.3369Z" fill="#FAA61A"/>
<path d="M27.4098 18.3369L23.8153 28.0165L23.4225 26.0534C22.7579 23.7882 20.6738 21.3271 18.3479 20.1034L21.6404 32.5168H25.5217L31.2909 18.3369H27.4098Z" fill="#00579F"/>
<path d="M34.9613 32.5319H31.2909L33.5866 18.3369H37.2568L34.9613 32.5319Z" fill="#00579F"/>
<path d="M48.2671 18.9413C47.5432 18.654 46.3949 18.3369 44.9751 18.3369C41.3505 18.3369 38.798 20.2697 38.7824 23.0331C38.7523 25.0719 40.6098 26.2043 41.9992 26.8841C43.4192 27.5788 43.9019 28.0322 43.9019 28.6514C43.8874 29.6023 42.7544 30.0407 41.6977 30.0407C40.2323 30.0407 39.4471 29.8147 38.2539 29.2856L37.7706 29.0588L37.257 32.2453C38.1178 32.6375 39.7038 32.9855 41.3505 33.0008C45.2017 33.0008 47.7089 31.0978 47.7386 28.153C47.7533 26.5371 46.7724 25.2989 44.6578 24.2871C43.374 23.6377 42.5878 23.1997 42.5878 22.5352C42.6029 21.931 43.2528 21.3122 44.7019 21.3122C45.8951 21.2819 46.7718 21.5687 47.436 21.8558L47.768 22.0065L48.2671 18.9413Z" fill="#00579F"/>
<path d="M53.9456 27.5031C54.2479 26.6876 55.411 23.5315 55.411 23.5315C55.3957 23.5618 55.7127 22.7009 55.8939 22.1725L56.1504 23.3956C56.1504 23.3956 56.8455 26.7934 56.9964 27.5031C56.4228 27.5031 54.6706 27.5031 53.9456 27.5031ZM58.4762 18.3369H55.6372C54.7617 18.3369 54.0965 18.5934 53.7188 19.5147L48.2669 32.5317H52.1181C52.1181 32.5317 52.7522 30.7797 52.8885 30.4024C53.311 30.4024 57.0574 30.4024 57.6009 30.4024C57.7063 30.9007 58.0389 32.5317 58.0389 32.5317H61.4373L58.4762 18.3369Z" fill="#00579F"/>
</g>
<defs>
<filter id="filter0_d_1_948" x="0.437256" y="0.668945" width="70" height="50" filterUnits="userSpaceOnUse" color-interpolation-filters="sRGB">
<feFlood flood-opacity="0" result="BackgroundImageFix"/>
<feColorMatrix in="SourceAlpha" type="matrix" values="0 0 0 0 0 0 0 0 0 0 0 0 0 0 0 0 0 0 127 0" result="hardAlpha"/>
<feOffset/>
<feGaussianBlur stdDeviation="2.5"/>
<feColorMatrix type="matrix" values="0 0 0 0 0 0 0 0 0 0 0 0 0 0 0 0 0 0 0.1 0"/>
<feBlend mode="normal" in2="BackgroundImageFix" result="effect1_dropShadow_1_948"/>
<feBlend mode="normal" in="SourceGraphic" in2="effect1_dropShadow_1_948" result="shape"/>
</filter>
</defs>
</svg>
