<svg width="71" height="51" viewBox="0 0 71 51" fill="none" xmlns="http://www.w3.org/2000/svg">
<g filter="url(#filter0_d_1_955)">
<rect x="5.43726" y="5.66895" width="60" height="40" rx="5" fill="white"/>
<g clip-path="url(#clip0_1_955)">
<path d="M23.124 40.6036V38.6126C23.124 37.851 22.6601 37.3523 21.8637 37.3523C21.4655 37.3523 21.0325 37.4837 20.7349 37.9167C20.5029 37.5533 20.1704 37.3523 19.6717 37.3523C19.3392 37.3523 19.0068 37.4528 18.7439 37.8162V37.418H18.048V40.6036H18.7439V38.8446C18.7439 38.2801 19.0416 38.0134 19.5055 38.0134C19.9694 38.0134 20.2014 38.3111 20.2014 38.8446V40.6036H20.8972V38.8446C20.8972 38.2801 21.2297 38.0134 21.6588 38.0134C22.1227 38.0134 22.3547 38.3111 22.3547 38.8446V40.6036H23.124ZM33.4462 37.418H32.3173V36.4554H31.6215V37.418H30.9913V38.0482H31.6215V39.5095C31.6215 40.2402 31.9191 40.6693 32.7155 40.6693C33.0132 40.6693 33.3457 40.5688 33.5776 40.4374L33.3766 39.8381C33.1756 39.9696 32.9436 40.0044 32.7774 40.0044C32.4449 40.0044 32.3135 39.8033 32.3135 39.4747V38.0482H33.4423V37.418H33.4462ZM39.3534 37.3484C38.9552 37.3484 38.6885 37.5495 38.5222 37.8124V37.4142H37.8264V40.5997H38.5222V38.8059C38.5222 38.2763 38.7542 37.9747 39.1872 37.9747C39.3186 37.9747 39.4849 38.0095 39.6202 38.0404L39.8212 37.3755C39.682 37.3484 39.4849 37.3484 39.3534 37.3484ZM30.4269 37.6809C30.0944 37.449 29.6305 37.3484 29.1318 37.3484C28.3354 37.3484 27.8057 37.7466 27.8057 38.3768C27.8057 38.9064 28.2039 39.208 28.8998 39.3046L29.2323 39.3394C29.5957 39.4051 29.7967 39.5057 29.7967 39.6719C29.7967 39.9039 29.53 40.0701 29.066 40.0701C28.6021 40.0701 28.2349 39.9039 28.0029 39.7376L27.6704 40.2673C28.0338 40.534 28.5325 40.6655 29.0313 40.6655C29.9591 40.6655 30.4926 40.2325 30.4926 39.6371C30.4926 39.0727 30.0596 38.775 29.3985 38.6745L29.066 38.6397C28.7684 38.6049 28.5364 38.5392 28.5364 38.342C28.5364 38.11 28.7684 37.9786 29.1356 37.9786C29.5338 37.9786 29.932 38.1448 30.1331 38.2453L30.4269 37.6809ZM48.941 37.3484C48.5429 37.3484 48.2761 37.5495 48.1099 37.8124V37.4142H47.414V40.5997H48.1099V38.8059C48.1099 38.2763 48.3418 37.9747 48.7748 37.9747C48.9062 37.9747 49.0725 38.0095 49.2078 38.0404L49.4088 37.3832C49.2735 37.3484 49.0764 37.3484 48.941 37.3484ZM40.0493 39.0108C40.0493 39.9734 40.7142 40.6693 41.7426 40.6693C42.2065 40.6693 42.539 40.5688 42.8715 40.3059L42.539 39.7415C42.2722 39.9425 42.0093 40.0392 41.7078 40.0392C41.1434 40.0392 40.7452 39.641 40.7452 39.0108C40.7452 38.4116 41.1434 38.0134 41.7078 37.9825C42.0055 37.9825 42.2722 38.083 42.539 38.2801L42.8715 37.7157C42.539 37.449 42.2065 37.3523 41.7426 37.3523C40.7142 37.3484 40.0493 38.0482 40.0493 39.0108ZM46.4861 39.0108V37.418H45.7903V37.8162C45.5583 37.5185 45.2258 37.3523 44.7928 37.3523C43.8959 37.3523 43.2001 38.0482 43.2001 39.0108C43.2001 39.9734 43.8959 40.6693 44.7928 40.6693C45.2568 40.6693 45.5892 40.5031 45.7903 40.2054V40.6036H46.4861V39.0108ZM43.9307 39.0108C43.9307 38.4464 44.2941 37.9825 44.8934 37.9825C45.4578 37.9825 45.856 38.4154 45.856 39.0108C45.856 39.5752 45.4578 40.0392 44.8934 40.0392C44.298 40.0044 43.9307 39.5714 43.9307 39.0108ZM35.6034 37.3484C34.6756 37.3484 34.0106 38.0134 34.0106 39.0069C34.0106 40.0044 34.6756 40.6655 35.6382 40.6655C36.1021 40.6655 36.566 40.534 36.9333 40.2325L36.6008 39.7337C36.3341 39.9348 36.0016 40.0662 35.673 40.0662C35.24 40.0662 34.8109 39.8652 34.7104 39.3046H37.0648C37.0648 39.2041 37.0648 39.1384 37.0648 39.0379C37.0957 38.0134 36.4965 37.3484 35.6034 37.3484ZM35.6034 37.9477C36.0364 37.9477 36.3341 38.2144 36.3998 38.7093H34.7413C34.807 38.2801 35.1047 37.9477 35.6034 37.9477ZM52.8921 39.0108V36.1577H52.1962V37.8162C51.9642 37.5185 51.6318 37.3523 51.1988 37.3523C50.3019 37.3523 49.606 38.0482 49.606 39.0108C49.606 39.9734 50.3019 40.6693 51.1988 40.6693C51.6627 40.6693 51.9952 40.5031 52.1962 40.2054V40.6036H52.8921V39.0108ZM50.3367 39.0108C50.3367 38.4464 50.7001 37.9825 51.2993 37.9825C51.8637 37.9825 52.2619 38.4154 52.2619 39.0108C52.2619 39.5752 51.8637 40.0392 51.2993 40.0392C50.7001 40.0044 50.3367 39.5714 50.3367 39.0108ZM27.0403 39.0108V37.418H26.3444V37.8162C26.1124 37.5185 25.78 37.3523 25.347 37.3523C24.4501 37.3523 23.7542 38.0482 23.7542 39.0108C23.7542 39.9734 24.4501 40.6693 25.347 40.6693C25.8109 40.6693 26.1434 40.5031 26.3444 40.2054V40.6036H27.0403V39.0108ZM24.4539 39.0108C24.4539 38.4464 24.8173 37.9825 25.4166 37.9825C25.981 37.9825 26.3792 38.4154 26.3792 39.0108C26.3792 39.5752 25.981 40.0392 25.4166 40.0392C24.8173 40.0044 24.4539 39.5714 24.4539 39.0108Z" fill="black"/>
<path d="M40.6485 13.2251H30.1949V32.006H40.6485V13.2251Z" fill="#FF5A00"/>
<path d="M30.8909 22.6148C30.8909 18.7991 32.6847 15.4125 35.4373 13.2244C33.4115 11.6316 30.8561 10.6689 28.0687 10.6689C21.4656 10.6689 16.1228 16.0117 16.1228 22.6148C16.1228 29.2179 21.4656 34.5607 28.0687 34.5607C30.8561 34.5607 33.4115 33.5981 35.4373 32.0053C32.6808 29.8481 30.8909 26.4305 30.8909 22.6148Z" fill="#EB001B"/>
<path d="M54.7517 22.6148C54.7517 29.2179 49.4089 34.5607 42.8058 34.5607C40.0184 34.5607 37.463 33.5981 35.4372 32.0053C38.2246 29.8133 39.9836 26.4305 39.9836 22.6148C39.9836 18.7991 38.1898 15.4125 35.4372 13.2244C37.4591 11.6316 40.0145 10.6689 42.8019 10.6689C49.4089 10.6689 54.7517 16.0465 54.7517 22.6148Z" fill="#F79E1B"/>
</g>
</g>
<defs>
<filter id="filter0_d_1_955" x="0.437256" y="0.668945" width="70" height="50" filterUnits="userSpaceOnUse" color-interpolation-filters="sRGB">
<feFlood flood-opacity="0" result="BackgroundImageFix"/>
<feColorMatrix in="SourceAlpha" type="matrix" values="0 0 0 0 0 0 0 0 0 0 0 0 0 0 0 0 0 0 127 0" result="hardAlpha"/>
<feOffset/>
<feGaussianBlur stdDeviation="2.5"/>
<feColorMatrix type="matrix" values="0 0 0 0 0 0 0 0 0 0 0 0 0 0 0 0 0 0 0.1 0"/>
<feBlend mode="normal" in2="BackgroundImageFix" result="effect1_dropShadow_1_955"/>
<feBlend mode="normal" in="SourceGraphic" in2="effect1_dropShadow_1_955" result="shape"/>
</filter>
<clipPath id="clip0_1_955">
<rect width="38.6289" height="30" fill="white" transform="translate(16.1228 10.6689)"/>
</clipPath>
</defs>
</svg>
