<svg xmlns="http://www.w3.org/2000/svg" width="71" height="51" viewBox="0 0 71 51" fill="none">
<g xmlns="http://www.w3.org/2000/svg" filter="url(#filter0_d_1_955)">
<rect x="5.43726" y="5.66895" width="60" height="40" rx="5" fill="white"/>
    <style xmlns="http://www.w3.org/2000/svg" type="text/css">
	.st0{fill:#FFFFFF;}
	.st1{fill:#055CA8;}
	.st2{fill:#EB2027;}
	.st3{fill-rule:evenodd;clip-rule:evenodd;fill:#055CA8;}
	.st4{fill-rule:evenodd;clip-rule:evenodd;fill:#EB2027;}
</style>
<g xmlns="http://www.w3.org/2000/svg">
	<path class="st0" d="M10.4,5.7h50c2.8,0,5,2.2,5,5v30c0,2.8-2.2,5-5,5h-50c-2.8,0-5-2.2-5-5v-30C5.4,7.9,7.7,5.7,10.4,5.7z"/>
	<g>
		<path class="st0" d="M12.6,6.7h50c2.8,0,5,2.2,5,5v30c0,2.8-2.2,5-5,5h-50c-2.8,0-5-2.2-5-5v-30C7.6,8.9,9.9,6.7,12.6,6.7z"/>
		<path class="st1" d="M36.9,16.9l-2,1.8l-0.1,0.1l-0.6,0.6l-0.5,0.4l-0.6,0.6H33l-0.3,0.3l-0.1,0.1l0,0l-0.9,0.8l0,0l-0.1,0.1    c-0.3,0.2-0.6,0.5-0.9,0.6c-0.2,0.1-0.3,0.2-0.5,0.2c-0.4,0.1-0.8,0.2-1.2,0.2c-0.3,0-0.5,0-0.8,0c-0.5-0.1-1.1-0.2-1.6-0.5    c-0.2-0.1-0.4-0.2-0.6-0.4l0,0l-0.1-0.1l-3.6-3.3l-0.1-0.1c-0.1-0.1-0.1-0.1-0.2-0.2c-0.1-0.2-0.2-0.4-0.2-0.6v-0.1    c0-0.1,0-0.1,0-0.2v-0.1l0,0c0-0.2,0.1-0.3,0.2-0.5l0.1-0.1l0.1-0.1l3.9-3.5l0,0l2.3-2.1c0.5-0.5,1.3-0.5,1.9-0.1L36.9,16.9z"/>
		<path class="st2" d="M29.9,24.8c-0.3,0-0.6-0.1-0.9-0.2l-0.7-0.7L28,23.7l0,0l-0.3-0.3L26,21.8l0.1,0.1c0.2,0.2,0.4,0.3,0.6,0.4    c0.5,0.2,1,0.4,1.6,0.5c0.3,0,0.5,0,0.8,0c0.4,0,0.8-0.1,1.2-0.2c0.2-0.1,0.3-0.1,0.5-0.2c0.3-0.2,0.6-0.4,0.9-0.6l0.1-0.1l0,0    l0.9-0.8l0,0l0.1-0.1l0.3-0.3l0.1-0.1l0.6-0.6l0.5-0.4l0.6-0.5l0.1-0.1l4-3.6l1.6-1.7l0,0l0.1-0.1c0.5-0.5,1.3-0.5,1.8,0l0.9,0.8    l0,0l0,0c-0.4,0-0.8,0.1-1.1,0.4l-3.1,2.7l0,0l-5.3,4.8l0,0l-2,1.7l0,0l-0.1,0.1c-0.3,0.2-0.6,0.4-0.9,0.6    c-0.2,0.1-0.4,0.1-0.6,0.2C30.2,24.7,30.1,24.7,29.9,24.8L29.9,24.8z"/>
		<path class="st2" d="M48.3,20.3L48.3,20.3l-4.4,4.1l-4.6,4.2c-0.1,0.1-0.3,0.2-0.5,0.4l0,0h-0.1l0,0c-1.6,1.1-3.9,0.9-5.3-0.3l0,0    l-0.1-0.1l-0.8-0.7l-2.2-2l-0.7-0.7l-0.1-0.1c0.1,0,0.2,0,0.4,0H30c0.1,0,0.3,0,0.4,0c0.2,0,0.5-0.1,0.7-0.2    c0.4-0.2,0.7-0.4,1-0.6l0.1-0.1l1.7-1.5l0,0l5.8-5.2l0,0l2.9-2.5c0.4-0.3,1-0.4,1.4-0.1l0.7,0.6l0,0l3.6,3.3l0.1,0.1    C48.9,19.2,48.8,19.8,48.3,20.3z"/>
		<path class="st3" d="M47.4,36.4l-2.7-2.8l-0.3-0.1h2.7l1.8,2.1l0.2-0.1l1.1-1.1c0.3-0.2,0.3-0.6-0.2-0.8h2.5l-3,2.8v2.1l0.5,0.4    H47l0.4-0.4C47.4,37.7,47.4,37,47.4,36.4L47.4,36.4z M40,33.5c0.2,0.1,0.3,0.3,0.3,0.4c0,0.1,0,0.2-0.1,0.3l-2,4.1    c-0.2,0.2-0.3,0.4-0.6,0.5h2.2c-0.2-0.1-0.3-0.2-0.3-0.4c0-0.1,0-0.2,0-0.3l0.4-1h2.5l0.4,0.7c0,0.1,0.1,0.1,0.1,0.2    c0.1,0.2-0.1,0.5-0.4,0.7H46c-0.3-0.2-0.6-0.4-0.8-0.7l-2.5-4.8L40,33.5z M42.2,36.5h-1.9l0.8-1.8L42.2,36.5L42.2,36.5z M33,33.5    h3.8c1.2,0,2.1,0.7,2.1,1.5v0.1c0,0.8-0.9,1.5-2.1,1.5h-0.9c0.8-0.3,1.1-0.9,1-1.4c-0.1-0.4-0.4-0.9-0.9-0.9h-0.3v4    c0,0.1,0,0.1,0.1,0.1c0.1,0.1,0.3,0.2,0.3,0.3l0.1,0.1h-3l0.2-0.1c0.1-0.1,0.2-0.1,0.3-0.3c0-0.1,0.1-0.1,0.1-0.1v-4.3    C33.6,33.7,33.2,33.5,33,33.5z"/>
		<path class="st4" d="M16.8,33.4h2.4l2,4.1l1.7-3.3c0-0.1,0-0.2-0.1-0.3c-0.1-0.1-0.2-0.3-0.3-0.4h1.8c-0.1,0.3-0.3,0.6-0.4,0.8    L21.7,39c-0.7-0.1-1.4-0.3-1.9-0.6c-0.3-0.3-0.6-0.6-0.8-1l-2-3.6C17.1,33.7,17,33.5,16.8,33.4z M26.5,35.3v2.9    c0,0.1,0,0.1,0.2,0.2l0.5,0.4h-2.3l0.4-0.4c0.1-0.1,0.2-0.1,0.2-0.3v-4.1l-0.7-0.7h2.4l3.8,3.4V34c0-0.1-0.1-0.2-0.2-0.3    c-0.2-0.1-0.3-0.3-0.4-0.4h2.2l-0.4,0.4C32.1,33.8,32,33.9,32,34v4.9c-0.9,0-1.8-0.4-2.4-0.9L26.5,35.3z"/>
	</g>
</g>
</g>
<defs>
<filter id="filter0_d_1_955" x="0.437256" y="0.668945" width="70" height="50" filterUnits="userSpaceOnUse" color-interpolation-filters="sRGB">
<feFlood flood-opacity="0" result="BackgroundImageFix"/>
<feColorMatrix in="SourceAlpha" type="matrix" values="0 0 0 0 0 0 0 0 0 0 0 0 0 0 0 0 0 0 127 0" result="hardAlpha"/>
<feOffset/>
<feGaussianBlur stdDeviation="2.5"/>
<feColorMatrix type="matrix" values="0 0 0 0 0 0 0 0 0 0 0 0 0 0 0 0 0 0 0.1 0"/>
<feBlend mode="normal" in2="BackgroundImageFix" result="effect1_dropShadow_1_955"/>
<feBlend mode="normal" in="SourceGraphic" in2="effect1_dropShadow_1_955" result="shape"/>
</filter>
<clipPath id="clip0_1_955">
<rect width="38.6289" height="30" fill="white" transform="translate(16.1228 10.6689)"/>
</clipPath>
</defs>
</svg>